<svg width="278" height="120" viewBox="0 0 278 120" fill="none" xmlns="http://www.w3.org/2000/svg">
<path d="M60.9203 89.608C61.683 91.544 62.563 92.952 63.5603 93.832C64.5577 94.712 65.5257 95.1813 66.4643 95.24V97C62.9443 96.824 58.4857 96.736 53.0883 96.736C47.1043 96.736 42.6457 96.824 39.7123 97V95.24C41.9417 95.1227 43.5257 94.8587 44.4643 94.448C45.403 93.9787 45.8723 93.1867 45.8723 92.072C45.8723 91.016 45.5203 89.608 44.8163 87.848L39.5363 73.416H20.3523L18.0643 79.488C16.4217 83.712 15.6003 86.968 15.6003 89.256C15.6003 91.4267 16.2457 92.952 17.5363 93.832C18.8857 94.6533 20.851 95.1227 23.4323 95.24V97C19.443 96.824 15.8057 96.736 12.5203 96.736C9.82168 96.736 7.59234 96.824 5.83234 97V95.24C8.70701 94.712 11.2297 91.632 13.4003 86L33.4643 34.52C34.1097 34.5787 35.1363 34.608 36.5443 34.608C37.9523 34.608 38.9497 34.5787 39.5363 34.52L60.9203 89.608ZM38.9203 71.656L30.2083 47.896L21.0563 71.656H38.9203Z" fill="#3D59BF"/>
<path d="M64.968 48.032C67.3147 48.352 68.9893 49.0347 69.992 50.08C70.9947 51.104 71.496 52.3413 71.496 53.792C71.496 55.008 71.1867 56.0853 70.568 57.024C69.9493 57.9627 69.064 58.6987 67.912 59.232C66.76 59.744 65.3947 60 63.816 60C63.24 60 62.7493 59.9893 62.344 59.968C60.9787 59.9253 59.6347 59.904 58.312 59.904C56.5627 59.904 55.24 59.936 54.344 60V59.36C55.112 59.3173 55.6667 59.232 56.008 59.104C56.3707 58.976 56.616 58.7307 56.744 58.368C56.872 58.0053 56.936 57.4187 56.936 56.608V40.736C56.936 39.9253 56.872 39.3387 56.744 38.976C56.616 38.6133 56.3707 38.368 56.008 38.24C55.6667 38.112 55.112 38.0267 54.344 37.984V37.344C55.24 37.408 56.5413 37.44 58.248 37.44L61.704 37.408C62.1093 37.3867 62.568 37.376 63.08 37.376C65.256 37.376 66.92 37.8347 68.072 38.752C69.2453 39.6693 69.832 40.8853 69.832 42.4C69.832 43.6373 69.4373 44.7467 68.648 45.728C67.88 46.7093 66.6533 47.456 64.968 47.968V48.032ZM62.28 37.984C61.6187 37.984 61.1173 38.0587 60.776 38.208C60.456 38.3573 60.232 38.624 60.104 39.008C59.976 39.392 59.912 39.968 59.912 40.736V47.968H62.056C63.8053 47.968 65.0213 47.4987 65.704 46.56C66.408 45.6 66.76 44.3307 66.76 42.752C66.76 41.152 66.408 39.9573 65.704 39.168C65 38.3787 63.8587 37.984 62.28 37.984ZM62.312 59.264C66.3013 59.264 68.296 57.3973 68.296 53.664C68.296 51.9787 67.8373 50.6987 66.92 49.824C66.024 48.9493 64.584 48.512 62.6 48.512H59.912V56.608C59.912 57.376 59.976 57.9413 60.104 58.304C60.232 58.6667 60.456 58.9227 60.776 59.072C61.1173 59.2 61.6293 59.264 62.312 59.264ZM97.1988 37.984C96.4308 38.0267 95.8654 38.112 95.5028 38.24C95.1614 38.368 94.9268 38.6133 94.7988 38.976C94.6708 39.3387 94.6068 39.9253 94.6068 40.736V56.608C94.6068 57.4187 94.6708 58.0053 94.7988 58.368C94.9268 58.7307 95.1614 58.976 95.5028 59.104C95.8654 59.232 96.4308 59.3173 97.1988 59.36V60C96.3028 59.936 94.9374 59.904 93.1028 59.904C91.3748 59.904 90.0201 59.936 89.0388 60V59.36C89.8068 59.3173 90.3614 59.232 90.7028 59.104C91.0654 58.976 91.3108 58.7307 91.4388 58.368C91.5668 58.0053 91.6308 57.4187 91.6308 56.608V48.928H81.2308V56.608C81.2308 57.4187 81.2948 58.0053 81.4228 58.368C81.5508 58.7307 81.7854 58.976 82.1268 59.104C82.4894 59.232 83.0548 59.3173 83.8228 59.36V60C82.8414 59.936 81.4868 59.904 79.7588 59.904C77.9241 59.904 76.5588 59.936 75.6628 60V59.36C76.4308 59.3173 76.9854 59.232 77.3268 59.104C77.6894 58.976 77.9348 58.7307 78.0628 58.368C78.1908 58.0053 78.2548 57.4187 78.2548 56.608V40.736C78.2548 39.9253 78.1908 39.3387 78.0628 38.976C77.9348 38.6133 77.6894 38.368 77.3268 38.24C76.9854 38.112 76.4308 38.0267 75.6628 37.984V37.344C76.5588 37.408 77.9241 37.44 79.7588 37.44C81.4654 37.44 82.8201 37.408 83.8228 37.344V37.984C83.0548 38.0267 82.4894 38.112 82.1268 38.24C81.7854 38.368 81.5508 38.6133 81.4228 38.976C81.2948 39.3387 81.2308 39.9253 81.2308 40.736V48.288H91.6308V40.736C91.6308 39.9253 91.5668 39.3387 91.4388 38.976C91.3108 38.6133 91.0654 38.368 90.7028 38.24C90.3614 38.112 89.8068 38.0267 89.0388 37.984V37.344C90.0201 37.408 91.3748 37.44 93.1028 37.44C94.9374 37.44 96.3028 37.408 97.1988 37.344V37.984ZM109.642 37.984C108.874 38.0267 108.308 38.112 107.946 38.24C107.604 38.368 107.37 38.6133 107.242 38.976C107.114 39.3387 107.05 39.9253 107.05 40.736V56.608C107.05 57.4187 107.114 58.0053 107.242 58.368C107.37 58.7307 107.604 58.976 107.946 59.104C108.308 59.232 108.874 59.3173 109.642 59.36V60C108.66 59.936 107.306 59.904 105.578 59.904C103.743 59.904 102.378 59.936 101.482 60V59.36C102.25 59.3173 102.804 59.232 103.146 59.104C103.508 58.976 103.754 58.7307 103.882 58.368C104.01 58.0053 104.074 57.4187 104.074 56.608V40.736C104.074 39.9253 104.01 39.3387 103.882 38.976C103.754 38.6133 103.508 38.368 103.146 38.24C102.804 38.112 102.25 38.0267 101.482 37.984V37.344C102.378 37.408 103.743 37.44 105.578 37.44C107.284 37.44 108.639 37.408 109.642 37.344V37.984ZM120.773 36.992C121.712 36.992 122.448 37.0987 122.981 37.312C123.536 37.504 124.101 37.792 124.677 38.176C125.147 38.4747 125.509 38.624 125.765 38.624C125.957 38.624 126.107 38.5173 126.213 38.304C126.32 38.0693 126.405 37.7067 126.469 37.216H127.205C127.099 38.4533 127.045 40.6293 127.045 43.744H126.309C126.181 42.016 125.68 40.5653 124.805 39.392C123.952 38.1973 122.704 37.6 121.061 37.6C119.909 37.6 118.971 37.952 118.245 38.656C117.52 39.3387 117.157 40.224 117.157 41.312C117.157 42.1227 117.339 42.8267 117.701 43.424C118.085 44.0213 118.565 44.5333 119.141 44.96C119.717 45.3867 120.539 45.9307 121.605 46.592L122.533 47.168C123.877 48 124.933 48.736 125.701 49.376C126.491 49.9947 127.12 50.7093 127.589 51.52C128.059 52.3307 128.293 53.28 128.293 54.368C128.293 56.3093 127.653 57.8133 126.373 58.88C125.093 59.9253 123.472 60.448 121.509 60.448C120.485 60.448 119.643 60.3413 118.981 60.128C118.341 59.9147 117.723 59.6267 117.125 59.264C116.656 58.9653 116.293 58.816 116.037 58.816C115.845 58.816 115.696 58.9333 115.589 59.168C115.483 59.3813 115.397 59.7333 115.333 60.224H114.597C114.683 59.0507 114.725 56.4907 114.725 52.544H115.461C115.611 54.6987 116.144 56.448 117.061 57.792C117.979 59.136 119.387 59.808 121.285 59.808C122.437 59.808 123.419 59.456 124.229 58.752C125.04 58.0267 125.445 56.96 125.445 55.552C125.445 54.3573 125.04 53.344 124.229 52.512C123.44 51.68 122.181 50.7413 120.453 49.696C119.195 48.928 118.171 48.2453 117.381 47.648C116.613 47.0507 115.984 46.336 115.493 45.504C115.003 44.6507 114.757 43.6587 114.757 42.528C114.757 40.736 115.333 39.3707 116.485 38.432C117.637 37.472 119.067 36.992 120.773 36.992ZM154.343 37.984C153.575 38.0267 153.009 38.112 152.647 38.24C152.305 38.368 152.071 38.6133 151.943 38.976C151.815 39.3387 151.751 39.9253 151.751 40.736V56.608C151.751 57.4187 151.815 58.0053 151.943 58.368C152.071 58.7307 152.305 58.976 152.647 59.104C153.009 59.232 153.575 59.3173 154.343 59.36V60C153.447 59.936 152.081 59.904 150.247 59.904C148.519 59.904 147.164 59.936 146.183 60V59.36C146.951 59.3173 147.505 59.232 147.847 59.104C148.209 58.976 148.455 58.7307 148.583 58.368C148.711 58.0053 148.775 57.4187 148.775 56.608V48.928H138.375V56.608C138.375 57.4187 138.439 58.0053 138.567 58.368C138.695 58.7307 138.929 58.976 139.271 59.104C139.633 59.232 140.199 59.3173 140.967 59.36V60C139.985 59.936 138.631 59.904 136.903 59.904C135.068 59.904 133.703 59.936 132.807 60V59.36C133.575 59.3173 134.129 59.232 134.471 59.104C134.833 58.976 135.079 58.7307 135.207 58.368C135.335 58.0053 135.399 57.4187 135.399 56.608V40.736C135.399 39.9253 135.335 39.3387 135.207 38.976C135.079 38.6133 134.833 38.368 134.471 38.24C134.129 38.112 133.575 38.0267 132.807 37.984V37.344C133.703 37.408 135.068 37.44 136.903 37.44C138.609 37.44 139.964 37.408 140.967 37.344V37.984C140.199 38.0267 139.633 38.112 139.271 38.24C138.929 38.368 138.695 38.6133 138.567 38.976C138.439 39.3387 138.375 39.9253 138.375 40.736V48.288H148.775V40.736C148.775 39.9253 148.711 39.3387 148.583 38.976C148.455 38.6133 148.209 38.368 147.847 38.24C147.505 38.112 146.951 38.0267 146.183 37.984V37.344C147.164 37.408 148.519 37.44 150.247 37.44C152.081 37.44 153.447 37.408 154.343 37.344V37.984ZM175.009 55.904C175.009 57.12 175.084 58.4853 175.233 60C173.783 59.936 171.34 59.904 167.905 59.904C163.809 59.904 160.716 59.936 158.625 60V59.36C159.393 59.3173 159.948 59.232 160.289 59.104C160.652 58.976 160.897 58.7307 161.025 58.368C161.153 58.0053 161.217 57.4187 161.217 56.608V40.736C161.217 39.9253 161.153 39.3387 161.025 38.976C160.897 38.6133 160.652 38.368 160.289 38.24C159.948 38.112 159.393 38.0267 158.625 37.984V37.344C160.716 37.408 163.809 37.44 167.905 37.44C171.041 37.44 173.271 37.408 174.593 37.344C174.444 38.752 174.369 40.0107 174.369 41.12C174.369 41.952 174.401 42.6133 174.465 43.104H173.729C173.58 41.7173 173.388 40.6933 173.153 40.032C172.919 39.3493 172.524 38.8587 171.969 38.56C171.415 38.24 170.572 38.08 169.441 38.08H166.785C166.017 38.08 165.452 38.144 165.089 38.272C164.748 38.3787 164.513 38.6133 164.385 38.976C164.257 39.3387 164.193 39.9253 164.193 40.736V48.288H166.305C167.052 48.288 167.628 48.1173 168.033 47.776C168.439 47.4133 168.705 46.9973 168.833 46.528C168.983 46.0373 169.1 45.4293 169.185 44.704L169.281 44.064H170.017C169.953 44.96 169.921 45.9627 169.921 47.072V48.608C169.921 49.696 169.985 51.2107 170.113 53.152H169.377C169.356 53.0027 169.292 52.4907 169.185 51.616C169.079 50.72 168.78 50.048 168.289 49.6C167.82 49.152 167.159 48.928 166.305 48.928H164.193V56.608C164.193 57.4187 164.257 58.0053 164.385 58.368C164.513 58.7307 164.748 58.976 165.089 59.104C165.452 59.2107 166.017 59.264 166.785 59.264H169.121C170.444 59.264 171.447 59.0933 172.129 58.752C172.833 58.3893 173.345 57.824 173.665 57.056C173.985 56.2667 174.22 55.1147 174.369 53.6H175.105C175.041 54.176 175.009 54.944 175.009 55.904ZM196.493 57.408C196.856 57.9413 197.251 58.368 197.677 58.688C198.125 58.9867 198.669 59.2107 199.309 59.36V60C198.285 59.936 197.005 59.904 195.469 59.904C194.317 59.904 193.219 59.936 192.173 60V59.36C192.685 59.3387 193.059 59.2747 193.293 59.168C193.528 59.0613 193.645 58.9013 193.645 58.688C193.645 58.4747 193.539 58.2187 193.325 57.92L188.653 50.88C188.035 49.9413 187.512 49.3333 187.085 49.056C186.659 48.7573 186.061 48.5867 185.293 48.544V56.608C185.293 57.4187 185.357 58.0053 185.485 58.368C185.613 58.7307 185.848 58.976 186.189 59.104C186.552 59.232 187.117 59.3173 187.885 59.36V60C186.904 59.936 185.549 59.904 183.821 59.904C181.987 59.904 180.621 59.936 179.725 60V59.36C180.493 59.3173 181.048 59.232 181.389 59.104C181.752 58.976 181.997 58.7307 182.125 58.368C182.253 58.0053 182.317 57.4187 182.317 56.608V40.736C182.317 39.9253 182.253 39.3387 182.125 38.976C181.997 38.6133 181.752 38.368 181.389 38.24C181.048 38.112 180.493 38.0267 179.725 37.984V37.344C180.621 37.408 181.987 37.44 183.821 37.44C185.528 37.44 186.883 37.408 187.885 37.344V37.984C187.117 38.0267 186.552 38.112 186.189 38.24C185.848 38.368 185.613 38.6133 185.485 38.976C185.357 39.3387 185.293 39.9253 185.293 40.736V47.904C186.851 47.84 188.067 47.2427 188.941 46.112L192.013 42.208C193.101 40.864 193.645 39.84 193.645 39.136C193.645 38.3893 192.984 38.0053 191.661 37.984V37.344C192.877 37.408 194.104 37.44 195.341 37.44C196.515 37.44 197.421 37.408 198.061 37.344V37.984C197.357 38.0907 196.696 38.3253 196.077 38.688C195.459 39.0293 194.861 39.5733 194.285 40.32L189.069 47.008L196.493 57.408Z" fill="#3D59BF"/>
<path d="M81.032 73.896C82.2907 73.896 83.3253 74.0773 84.136 74.44C84.9467 74.7813 85.832 75.2933 86.792 75.976C87.0693 76.1893 87.2827 76.296 87.432 76.296C87.8373 76.296 88.104 75.6453 88.232 74.344H88.968C88.8827 75.7307 88.84 78.184 88.84 81.704H88.104C87.912 80.5733 87.7093 79.6453 87.496 78.92C87.2827 78.1733 86.952 77.5227 86.504 76.968C85.8853 76.2 85.0747 75.592 84.072 75.144C83.0907 74.696 82.056 74.472 80.968 74.472C79.56 74.472 78.3227 74.9307 77.256 75.848C76.1893 76.7653 75.368 78.0773 74.792 79.784C74.216 81.4693 73.928 83.4427 73.928 85.704C73.928 89.544 74.536 92.36 75.752 94.152C76.9893 95.9227 78.92 96.808 81.544 96.808C82.824 96.808 83.9333 96.4773 84.872 95.816C85.256 95.56 85.5013 95.3147 85.608 95.08C85.736 94.824 85.8 94.4827 85.8 94.056V90.984C85.8 90.088 85.7147 89.4373 85.544 89.032C85.3733 88.6267 85.0747 88.3493 84.648 88.2C84.2213 88.0507 83.528 87.9547 82.568 87.912V87.272C83.6773 87.336 85.1813 87.368 87.08 87.368C88.5307 87.368 89.64 87.336 90.408 87.272V87.912C89.9173 87.9547 89.5547 88.04 89.32 88.168C89.1067 88.296 88.9573 88.5413 88.872 88.904C88.808 89.2667 88.776 89.8533 88.776 90.664V97H88.136C88.1147 96.5733 88.0293 96.168 87.88 95.784C87.7307 95.3787 87.528 95.176 87.272 95.176C87.144 95.176 87.016 95.208 86.888 95.272C86.76 95.336 86.536 95.4853 86.216 95.72C85.4693 96.296 84.6907 96.7227 83.88 97C83.0907 97.2987 82.2053 97.448 81.224 97.448C79.0267 97.448 77.1387 97 75.56 96.104C74.0027 95.1867 72.808 93.8747 71.976 92.168C71.144 90.4613 70.728 88.424 70.728 86.056C70.728 83.624 71.1653 81.4907 72.04 79.656C72.936 77.8 74.1627 76.3813 75.72 75.4C77.2773 74.3973 79.048 73.896 81.032 73.896ZM111.244 94.312C111.756 95.6347 112.492 96.3173 113.452 96.36V97C112.599 96.936 111.457 96.904 110.028 96.904C108.193 96.904 106.828 96.936 105.932 97V96.36C106.743 96.3173 107.319 96.2213 107.66 96.072C108.023 95.9013 108.204 95.6027 108.204 95.176C108.204 94.8133 108.076 94.312 107.82 93.672L105.868 88.424H98.124L96.812 91.816C96.3853 92.968 96.172 93.8427 96.172 94.44C96.172 95.1013 96.396 95.5813 96.844 95.88C97.3133 96.1787 98.0173 96.3387 98.956 96.36V97C97.74 96.936 96.5133 96.904 95.276 96.904C94.316 96.904 93.516 96.936 92.876 97V96.36C93.9427 96.104 94.7853 95.176 95.404 93.576L102.924 74.184H103.436L111.244 94.312ZM105.612 87.784L102.028 78.216L98.38 87.784H105.612ZM135.351 95.4C134.861 96.1253 134.37 96.648 133.879 96.968C133.389 97.288 132.738 97.448 131.927 97.448C131.053 97.448 130.327 97.192 129.751 96.68C129.197 96.168 128.781 95.272 128.503 93.992L127.799 90.792C127.543 89.6827 127.298 88.8293 127.063 88.232C126.85 87.6347 126.519 87.1547 126.071 86.792C125.623 86.4293 124.994 86.248 124.183 86.248H121.143V93.608C121.143 94.4187 121.207 95.0053 121.335 95.368C121.463 95.7307 121.698 95.976 122.039 96.104C122.402 96.232 122.967 96.3173 123.735 96.36V97C122.754 96.936 121.399 96.904 119.671 96.904C117.837 96.904 116.471 96.936 115.575 97V96.36C116.343 96.3173 116.898 96.232 117.239 96.104C117.602 95.976 117.847 95.7307 117.975 95.368C118.103 95.0053 118.167 94.4187 118.167 93.608V77.736C118.167 76.9253 118.103 76.3387 117.975 75.976C117.847 75.6133 117.602 75.368 117.239 75.24C116.898 75.112 116.343 75.0267 115.575 74.984V74.344C116.471 74.408 117.773 74.44 119.479 74.44L122.935 74.408C123.341 74.3867 123.799 74.376 124.311 74.376C126.786 74.376 128.685 74.8987 130.007 75.944C131.351 76.968 132.023 78.3013 132.023 79.944C132.023 80.776 131.821 81.6187 131.415 82.472C131.031 83.304 130.37 84.0613 129.431 84.744C128.514 85.4053 127.309 85.8533 125.815 86.088L126.199 86.152C127.607 86.3867 128.631 86.8133 129.271 87.432C129.911 88.0507 130.381 89.032 130.679 90.376L131.479 93.64C131.693 94.6213 131.917 95.304 132.151 95.688C132.386 96.072 132.706 96.264 133.111 96.264C133.474 96.264 133.773 96.168 134.007 95.976C134.263 95.784 134.551 95.4747 134.871 95.048L135.351 95.4ZM123.511 74.984C122.85 74.984 122.349 75.0587 122.007 75.208C121.687 75.3573 121.463 75.624 121.335 76.008C121.207 76.392 121.143 76.968 121.143 77.736V85.608H123.287C125.399 85.608 126.85 85.1387 127.639 84.2C128.429 83.2613 128.823 81.96 128.823 80.296C128.823 78.5467 128.407 77.224 127.575 76.328C126.743 75.432 125.389 74.984 123.511 74.984ZM161.393 74.44C162.353 74.44 163.153 74.408 163.793 74.344V74.984C162.598 75.2613 161.755 76.1893 161.265 77.768L155.217 97.16H154.961H154.705L149.137 80.68L144.049 97.16H143.793H143.537L136.753 77.032C136.305 75.7093 135.569 75.0267 134.545 74.984V74.344C135.419 74.408 136.561 74.44 137.969 74.44C139.505 74.44 140.657 74.408 141.425 74.344V74.984C140.849 75.0267 140.443 75.1333 140.209 75.304C139.974 75.4747 139.857 75.7413 139.857 76.104C139.857 76.4453 139.974 76.968 140.209 77.672L144.881 91.944L148.785 79.56L147.921 77.032C147.494 75.7093 146.865 75.0267 146.033 74.984V74.344C146.801 74.408 147.835 74.44 149.137 74.44C150.971 74.44 152.337 74.408 153.233 74.344V74.984C152.422 75.0267 151.857 75.1227 151.537 75.272C151.217 75.4 151.057 75.688 151.057 76.136C151.057 76.52 151.163 77.032 151.377 77.672L155.985 91.912L159.921 79.528C160.262 78.4827 160.433 77.6187 160.433 76.936C160.433 76.232 160.219 75.7413 159.793 75.464C159.366 75.1653 158.673 75.0053 157.713 74.984V74.344C158.929 74.408 160.155 74.44 161.393 74.44ZM181.669 94.312C182.181 95.6347 182.917 96.3173 183.877 96.36V97C183.024 96.936 181.882 96.904 180.453 96.904C178.618 96.904 177.253 96.936 176.357 97V96.36C177.168 96.3173 177.744 96.2213 178.085 96.072C178.448 95.9013 178.629 95.6027 178.629 95.176C178.629 94.8133 178.501 94.312 178.245 93.672L176.293 88.424H168.549L167.237 91.816C166.81 92.968 166.597 93.8427 166.597 94.44C166.597 95.1013 166.821 95.5813 167.269 95.88C167.738 96.1787 168.442 96.3387 169.381 96.36V97C168.165 96.936 166.938 96.904 165.701 96.904C164.741 96.904 163.941 96.936 163.301 97V96.36C164.368 96.104 165.21 95.176 165.829 93.576L173.349 74.184H173.861L181.669 94.312ZM176.037 87.784L172.453 78.216L168.805 87.784H176.037ZM194.16 74.984C193.392 75.0267 192.827 75.112 192.464 75.24C192.123 75.368 191.888 75.6133 191.76 75.976C191.632 76.3387 191.568 76.9253 191.568 77.736V93.608C191.568 94.4187 191.632 95.0053 191.76 95.368C191.888 95.7307 192.123 95.976 192.464 96.104C192.827 96.2107 193.392 96.264 194.16 96.264H196.496C197.819 96.264 198.822 96.0827 199.504 95.72C200.208 95.336 200.72 94.728 201.04 93.896C201.36 93.064 201.595 91.8587 201.744 90.28H202.48C202.416 90.9413 202.384 91.816 202.384 92.904C202.384 94.12 202.459 95.4853 202.608 97C201.158 96.936 198.715 96.904 195.28 96.904C191.184 96.904 188.091 96.936 186 97V96.36C186.768 96.3173 187.323 96.232 187.664 96.104C188.027 95.976 188.272 95.7307 188.4 95.368C188.528 95.0053 188.592 94.4187 188.592 93.608V77.736C188.592 76.9253 188.528 76.3387 188.4 75.976C188.272 75.6133 188.027 75.368 187.664 75.24C187.323 75.112 186.768 75.0267 186 74.984V74.344C186.896 74.408 188.262 74.44 190.096 74.44C191.803 74.44 193.158 74.408 194.16 74.344V74.984Z" fill="#3D59BF"/>
</svg>
