<svg width="278" height="120" viewBox="0 0 278 120" fill="none" xmlns="http://www.w3.org/2000/svg">
<path d="M61.7059 93.6C63.3059 97.7333 65.6059 99.8667 68.6059 100V102C65.9392 101.8 62.3725 101.7 57.9059 101.7C52.1725 101.7 47.9059 101.8 45.1059 102V100C47.6392 99.8667 49.4392 99.5667 50.5059 99.1C51.6392 98.5667 52.2059 97.6333 52.2059 96.3C52.2059 95.1667 51.8059 93.6 51.0059 91.6L44.9059 75.2H20.7059L16.6059 85.8C15.2725 89.4 14.6059 92.1333 14.6059 94C14.6059 96.0667 15.3059 97.5667 16.7059 98.5C18.1725 99.4333 20.3725 99.9333 23.3059 100V102C19.5059 101.8 15.6725 101.7 11.8059 101.7C8.80586 101.7 6.30586 101.8 4.30586 102V100C7.63919 99.2 10.2725 96.3 12.2059 91.3L35.7059 30.7H37.3059L61.7059 93.6ZM44.1059 73.2L32.9059 43.3L21.5059 73.2H44.1059Z" fill="white"/>
<path d="M73.96 45.04C76.8933 45.44 78.9867 46.2933 80.24 47.6C81.4933 48.88 82.12 50.4267 82.12 52.24C82.12 53.76 81.7333 55.1067 80.96 56.28C80.1867 57.4533 79.08 58.3733 77.64 59.04C76.2 59.68 74.4933 60 72.52 60C71.8 60 71.1867 59.9867 70.68 59.96C68.9733 59.9067 67.2933 59.88 65.64 59.88C63.4533 59.88 61.8 59.92 60.68 60V59.2C61.64 59.1467 62.3333 59.04 62.76 58.88C63.2133 58.72 63.52 58.4133 63.68 57.96C63.84 57.5067 63.92 56.7733 63.92 55.76V35.92C63.92 34.9067 63.84 34.1733 63.68 33.72C63.52 33.2667 63.2133 32.96 62.76 32.8C62.3333 32.64 61.64 32.5333 60.68 32.48V31.68C61.8 31.76 63.4267 31.8 65.56 31.8L69.88 31.76C70.3867 31.7333 70.96 31.72 71.6 31.72C74.32 31.72 76.4 32.2933 77.84 33.44C79.3067 34.5867 80.04 36.1067 80.04 38C80.04 39.5467 79.5467 40.9333 78.56 42.16C77.6 43.3867 76.0667 44.32 73.96 44.96V45.04ZM70.6 32.48C69.7733 32.48 69.1467 32.5733 68.72 32.76C68.32 32.9467 68.04 33.28 67.88 33.76C67.72 34.24 67.64 34.96 67.64 35.92V44.96H70.32C72.5067 44.96 74.0267 44.3733 74.88 43.2C75.76 42 76.2 40.4133 76.2 38.44C76.2 36.44 75.76 34.9467 74.88 33.96C74 32.9733 72.5733 32.48 70.6 32.48ZM70.64 59.08C75.6267 59.08 78.12 56.7467 78.12 52.08C78.12 49.9733 77.5467 48.3733 76.4 47.28C75.28 46.1867 73.48 45.64 71 45.64H67.64V55.76C67.64 56.72 67.72 57.4267 67.88 57.88C68.04 58.3333 68.32 58.6533 68.72 58.84C69.1467 59 69.7867 59.08 70.64 59.08ZM114.248 32.48C113.288 32.5333 112.582 32.64 112.128 32.8C111.702 32.96 111.408 33.2667 111.248 33.72C111.088 34.1733 111.008 34.9067 111.008 35.92V55.76C111.008 56.7733 111.088 57.5067 111.248 57.96C111.408 58.4133 111.702 58.72 112.128 58.88C112.582 59.04 113.288 59.1467 114.248 59.2V60C113.128 59.92 111.422 59.88 109.128 59.88C106.968 59.88 105.275 59.92 104.048 60V59.2C105.008 59.1467 105.702 59.04 106.128 58.88C106.582 58.72 106.888 58.4133 107.048 57.96C107.208 57.5067 107.288 56.7733 107.288 55.76V46.16H94.2884V55.76C94.2884 56.7733 94.3684 57.5067 94.5284 57.96C94.6884 58.4133 94.9818 58.72 95.4084 58.88C95.8618 59.04 96.5684 59.1467 97.5284 59.2V60C96.3018 59.92 94.6084 59.88 92.4484 59.88C90.1551 59.88 88.4484 59.92 87.3284 60V59.2C88.2884 59.1467 88.9818 59.04 89.4084 58.88C89.8618 58.72 90.1684 58.4133 90.3284 57.96C90.4884 57.5067 90.5684 56.7733 90.5684 55.76V35.92C90.5684 34.9067 90.4884 34.1733 90.3284 33.72C90.1684 33.2667 89.8618 32.96 89.4084 32.8C88.9818 32.64 88.2884 32.5333 87.3284 32.48V31.68C88.4484 31.76 90.1551 31.8 92.4484 31.8C94.5818 31.8 96.2751 31.76 97.5284 31.68V32.48C96.5684 32.5333 95.8618 32.64 95.4084 32.8C94.9818 32.96 94.6884 33.2667 94.5284 33.72C94.3684 34.1733 94.2884 34.9067 94.2884 35.92V45.36H107.288V35.92C107.288 34.9067 107.208 34.1733 107.048 33.72C106.888 33.2667 106.582 32.96 106.128 32.8C105.702 32.64 105.008 32.5333 104.048 32.48V31.68C105.275 31.76 106.968 31.8 109.128 31.8C111.422 31.8 113.128 31.76 114.248 31.68V32.48ZM129.802 32.48C128.842 32.5333 128.135 32.64 127.682 32.8C127.255 32.96 126.962 33.2667 126.802 33.72C126.642 34.1733 126.562 34.9067 126.562 35.92V55.76C126.562 56.7733 126.642 57.5067 126.802 57.96C126.962 58.4133 127.255 58.72 127.682 58.88C128.135 59.04 128.842 59.1467 129.802 59.2V60C128.575 59.92 126.882 59.88 124.722 59.88C122.429 59.88 120.722 59.92 119.602 60V59.2C120.562 59.1467 121.255 59.04 121.682 58.88C122.135 58.72 122.442 58.4133 122.602 57.96C122.762 57.5067 122.842 56.7733 122.842 55.76V35.92C122.842 34.9067 122.762 34.1733 122.602 33.72C122.442 33.2667 122.135 32.96 121.682 32.8C121.255 32.64 120.562 32.5333 119.602 32.48V31.68C120.722 31.76 122.429 31.8 124.722 31.8C126.855 31.8 128.549 31.76 129.802 31.68V32.48ZM143.717 31.24C144.89 31.24 145.81 31.3733 146.477 31.64C147.17 31.88 147.877 32.24 148.597 32.72C149.183 33.0933 149.637 33.28 149.957 33.28C150.197 33.28 150.383 33.1467 150.517 32.88C150.65 32.5867 150.757 32.1333 150.837 31.52H151.757C151.623 33.0667 151.557 35.7867 151.557 39.68H150.637C150.477 37.52 149.85 35.7067 148.757 34.24C147.69 32.7467 146.13 32 144.077 32C142.637 32 141.463 32.44 140.557 33.32C139.65 34.1733 139.197 35.28 139.197 36.64C139.197 37.6533 139.423 38.5333 139.877 39.28C140.357 40.0267 140.957 40.6667 141.677 41.2C142.397 41.7333 143.423 42.4133 144.757 43.24L145.917 43.96C147.597 45 148.917 45.92 149.877 46.72C150.863 47.4933 151.65 48.3867 152.237 49.4C152.823 50.4133 153.117 51.6 153.117 52.96C153.117 55.3867 152.317 57.2667 150.717 58.6C149.117 59.9067 147.09 60.56 144.637 60.56C143.357 60.56 142.303 60.4267 141.477 60.16C140.677 59.8933 139.903 59.5333 139.157 59.08C138.57 58.7067 138.117 58.52 137.797 58.52C137.557 58.52 137.37 58.6667 137.237 58.96C137.103 59.2267 136.997 59.6667 136.917 60.28H135.997C136.103 58.8133 136.157 55.6133 136.157 50.68H137.077C137.263 53.3733 137.93 55.56 139.077 57.24C140.223 58.92 141.983 59.76 144.357 59.76C145.797 59.76 147.023 59.32 148.037 58.44C149.05 57.5333 149.557 56.2 149.557 54.44C149.557 52.9467 149.05 51.68 148.037 50.64C147.05 49.6 145.477 48.4267 143.317 47.12C141.743 46.16 140.463 45.3067 139.477 44.56C138.517 43.8133 137.73 42.92 137.117 41.88C136.503 40.8133 136.197 39.5733 136.197 38.16C136.197 35.92 136.917 34.2133 138.357 33.04C139.797 31.84 141.583 31.24 143.717 31.24ZM185.678 32.48C184.718 32.5333 184.011 32.64 183.558 32.8C183.131 32.96 182.838 33.2667 182.678 33.72C182.518 34.1733 182.438 34.9067 182.438 35.92V55.76C182.438 56.7733 182.518 57.5067 182.678 57.96C182.838 58.4133 183.131 58.72 183.558 58.88C184.011 59.04 184.718 59.1467 185.678 59.2V60C184.558 59.92 182.851 59.88 180.558 59.88C178.398 59.88 176.705 59.92 175.478 60V59.2C176.438 59.1467 177.131 59.04 177.558 58.88C178.011 58.72 178.318 58.4133 178.478 57.96C178.638 57.5067 178.718 56.7733 178.718 55.76V46.16H165.718V55.76C165.718 56.7733 165.798 57.5067 165.958 57.96C166.118 58.4133 166.411 58.72 166.838 58.88C167.291 59.04 167.998 59.1467 168.958 59.2V60C167.731 59.92 166.038 59.88 163.878 59.88C161.585 59.88 159.878 59.92 158.758 60V59.2C159.718 59.1467 160.411 59.04 160.838 58.88C161.291 58.72 161.598 58.4133 161.758 57.96C161.918 57.5067 161.998 56.7733 161.998 55.76V35.92C161.998 34.9067 161.918 34.1733 161.758 33.72C161.598 33.2667 161.291 32.96 160.838 32.8C160.411 32.64 159.718 32.5333 158.758 32.48V31.68C159.878 31.76 161.585 31.8 163.878 31.8C166.011 31.8 167.705 31.76 168.958 31.68V32.48C167.998 32.5333 167.291 32.64 166.838 32.8C166.411 32.96 166.118 33.2667 165.958 33.72C165.798 34.1733 165.718 34.9067 165.718 35.92V45.36H178.718V35.92C178.718 34.9067 178.638 34.1733 178.478 33.72C178.318 33.2667 178.011 32.96 177.558 32.8C177.131 32.64 176.438 32.5333 175.478 32.48V31.68C176.705 31.76 178.398 31.8 180.558 31.8C182.851 31.8 184.558 31.76 185.678 31.68V32.48ZM211.512 54.88C211.512 56.4 211.605 58.1067 211.792 60C209.978 59.92 206.925 59.88 202.632 59.88C197.512 59.88 193.645 59.92 191.032 60V59.2C191.992 59.1467 192.685 59.04 193.112 58.88C193.565 58.72 193.872 58.4133 194.032 57.96C194.192 57.5067 194.272 56.7733 194.272 55.76V35.92C194.272 34.9067 194.192 34.1733 194.032 33.72C193.872 33.2667 193.565 32.96 193.112 32.8C192.685 32.64 191.992 32.5333 191.032 32.48V31.68C193.645 31.76 197.512 31.8 202.632 31.8C206.552 31.8 209.338 31.76 210.992 31.68C210.805 33.44 210.712 35.0133 210.712 36.4C210.712 37.44 210.752 38.2667 210.832 38.88H209.912C209.725 37.1467 209.485 35.8667 209.192 35.04C208.898 34.1867 208.405 33.5733 207.712 33.2C207.018 32.8 205.965 32.6 204.552 32.6H201.232C200.272 32.6 199.565 32.68 199.112 32.84C198.685 32.9733 198.392 33.2667 198.232 33.72C198.072 34.1733 197.992 34.9067 197.992 35.92V45.36H200.632C201.565 45.36 202.285 45.1467 202.792 44.72C203.298 44.2667 203.632 43.7467 203.792 43.16C203.978 42.5467 204.125 41.7867 204.232 40.88L204.352 40.08H205.272C205.192 41.2 205.152 42.4533 205.152 43.84V45.76C205.152 47.12 205.232 49.0133 205.392 51.44H204.472C204.445 51.2533 204.365 50.6133 204.232 49.52C204.098 48.4 203.725 47.56 203.112 47C202.525 46.44 201.698 46.16 200.632 46.16H197.992V55.76C197.992 56.7733 198.072 57.5067 198.232 57.96C198.392 58.4133 198.685 58.72 199.112 58.88C199.565 59.0133 200.272 59.08 201.232 59.08H204.152C205.805 59.08 207.058 58.8667 207.912 58.44C208.792 57.9867 209.432 57.28 209.832 56.32C210.232 55.3333 210.525 53.8933 210.712 52H211.632C211.552 52.72 211.512 53.68 211.512 54.88ZM238.367 56.76C238.82 57.4267 239.313 57.96 239.847 58.36C240.407 58.7333 241.087 59.0133 241.887 59.2V60C240.607 59.92 239.007 59.88 237.087 59.88C235.647 59.88 234.273 59.92 232.967 60V59.2C233.607 59.1733 234.073 59.0933 234.367 58.96C234.66 58.8267 234.807 58.6267 234.807 58.36C234.807 58.0933 234.673 57.7733 234.407 57.4L228.567 48.6C227.793 47.4267 227.14 46.6667 226.607 46.32C226.073 45.9467 225.327 45.7333 224.367 45.68V55.76C224.367 56.7733 224.447 57.5067 224.607 57.96C224.767 58.4133 225.06 58.72 225.487 58.88C225.94 59.04 226.647 59.1467 227.607 59.2V60C226.38 59.92 224.687 59.88 222.527 59.88C220.233 59.88 218.527 59.92 217.407 60V59.2C218.367 59.1467 219.06 59.04 219.487 58.88C219.94 58.72 220.247 58.4133 220.407 57.96C220.567 57.5067 220.647 56.7733 220.647 55.76V35.92C220.647 34.9067 220.567 34.1733 220.407 33.72C220.247 33.2667 219.94 32.96 219.487 32.8C219.06 32.64 218.367 32.5333 217.407 32.48V31.68C218.527 31.76 220.233 31.8 222.527 31.8C224.66 31.8 226.353 31.76 227.607 31.68V32.48C226.647 32.5333 225.94 32.64 225.487 32.8C225.06 32.96 224.767 33.2667 224.607 33.72C224.447 34.1733 224.367 34.9067 224.367 35.92V44.88C226.313 44.8 227.833 44.0533 228.927 42.64L232.767 37.76C234.127 36.08 234.807 34.8 234.807 33.92C234.807 32.9867 233.98 32.5067 232.327 32.48V31.68C233.847 31.76 235.38 31.8 236.927 31.8C238.393 31.8 239.527 31.76 240.327 31.68V32.48C239.447 32.6133 238.62 32.9067 237.847 33.36C237.073 33.7867 236.327 34.4667 235.607 35.4L229.087 43.76L238.367 56.76Z" fill="white"/>
<path d="M88.04 73.12C89.6133 73.12 90.9067 73.3467 91.92 73.8C92.9333 74.2267 94.04 74.8667 95.24 75.72C95.5867 75.9867 95.8533 76.12 96.04 76.12C96.5467 76.12 96.88 75.3067 97.04 73.68H97.96C97.8533 75.4133 97.8 78.48 97.8 82.88H96.88C96.64 81.4667 96.3867 80.3067 96.12 79.4C95.8533 78.4667 95.44 77.6533 94.88 76.96C94.1067 76 93.0933 75.24 91.84 74.68C90.6133 74.12 89.32 73.84 87.96 73.84C86.2 73.84 84.6533 74.4133 83.32 75.56C81.9867 76.7067 80.96 78.3467 80.24 80.48C79.52 82.5867 79.16 85.0533 79.16 87.88C79.16 92.68 79.92 96.2 81.44 98.44C82.9867 100.653 85.4 101.76 88.68 101.76C90.28 101.76 91.6667 101.347 92.84 100.52C93.32 100.2 93.6267 99.8933 93.76 99.6C93.92 99.28 94 98.8533 94 98.32V94.48C94 93.36 93.8933 92.5467 93.68 92.04C93.4667 91.5333 93.0933 91.1867 92.56 91C92.0267 90.8133 91.16 90.6933 89.96 90.64V89.84C91.3467 89.92 93.2267 89.96 95.6 89.96C97.4133 89.96 98.8 89.92 99.76 89.84V90.64C99.1467 90.6933 98.6933 90.8 98.4 90.96C98.1333 91.12 97.9467 91.4267 97.84 91.88C97.76 92.3333 97.72 93.0667 97.72 94.08V102H96.92C96.8933 101.467 96.7867 100.96 96.6 100.48C96.4133 99.9733 96.16 99.72 95.84 99.72C95.68 99.72 95.52 99.76 95.36 99.84C95.2 99.92 94.92 100.107 94.52 100.4C93.5867 101.12 92.6133 101.653 91.6 102C90.6133 102.373 89.5067 102.56 88.28 102.56C85.5333 102.56 83.1733 102 81.2 100.88C79.2533 99.7333 77.76 98.0933 76.72 95.96C75.68 93.8267 75.16 91.28 75.16 88.32C75.16 85.28 75.7067 82.6133 76.8 80.32C77.92 78 79.4533 76.2267 81.4 75C83.3467 73.7467 85.56 73.12 88.04 73.12ZM125.805 98.64C126.445 100.293 127.365 101.147 128.565 101.2V102C127.498 101.92 126.072 101.88 124.285 101.88C121.992 101.88 120.285 101.92 119.165 102V101.2C120.178 101.147 120.898 101.027 121.325 100.84C121.778 100.627 122.005 100.253 122.005 99.72C122.005 99.2667 121.845 98.64 121.525 97.84L119.085 91.28H109.405L107.765 95.52C107.232 96.96 106.965 98.0533 106.965 98.8C106.965 99.6267 107.245 100.227 107.805 100.6C108.392 100.973 109.272 101.173 110.445 101.2V102C108.925 101.92 107.392 101.88 105.845 101.88C104.645 101.88 103.645 101.92 102.845 102V101.2C104.178 100.88 105.232 99.72 106.005 97.72L115.405 73.48H116.045L125.805 98.64ZM118.765 90.48L114.285 78.52L109.725 90.48H118.765ZM155.939 100C155.326 100.907 154.712 101.56 154.099 101.96C153.486 102.36 152.672 102.56 151.659 102.56C150.566 102.56 149.659 102.24 148.939 101.6C148.246 100.96 147.726 99.84 147.379 98.24L146.499 94.24C146.179 92.8533 145.872 91.7867 145.579 91.04C145.312 90.2933 144.899 89.6933 144.339 89.24C143.779 88.7867 142.992 88.56 141.979 88.56H138.179V97.76C138.179 98.7733 138.259 99.5067 138.419 99.96C138.579 100.413 138.872 100.72 139.299 100.88C139.752 101.04 140.459 101.147 141.419 101.2V102C140.192 101.92 138.499 101.88 136.339 101.88C134.046 101.88 132.339 101.92 131.219 102V101.2C132.179 101.147 132.872 101.04 133.299 100.88C133.752 100.72 134.059 100.413 134.219 99.96C134.379 99.5067 134.459 98.7733 134.459 97.76V77.92C134.459 76.9067 134.379 76.1733 134.219 75.72C134.059 75.2667 133.752 74.96 133.299 74.8C132.872 74.64 132.179 74.5333 131.219 74.48V73.68C132.339 73.76 133.966 73.8 136.099 73.8L140.419 73.76C140.926 73.7333 141.499 73.72 142.139 73.72C145.232 73.72 147.606 74.3733 149.259 75.68C150.939 76.96 151.779 78.6267 151.779 80.68C151.779 81.72 151.526 82.7733 151.019 83.84C150.539 84.88 149.712 85.8267 148.539 86.68C147.392 87.5067 145.886 88.0667 144.019 88.36L144.499 88.44C146.259 88.7333 147.539 89.2667 148.339 90.04C149.139 90.8133 149.726 92.04 150.099 93.72L151.099 97.8C151.366 99.0267 151.646 99.88 151.939 100.36C152.232 100.84 152.632 101.08 153.139 101.08C153.592 101.08 153.966 100.96 154.259 100.72C154.579 100.48 154.939 100.093 155.339 99.56L155.939 100ZM141.139 74.48C140.312 74.48 139.686 74.5733 139.259 74.76C138.859 74.9467 138.579 75.28 138.419 75.76C138.259 76.24 138.179 76.96 138.179 77.92V87.76H140.859C143.499 87.76 145.312 87.1733 146.299 86C147.286 84.8267 147.779 83.2 147.779 81.12C147.779 78.9333 147.259 77.28 146.219 76.16C145.179 75.04 143.486 74.48 141.139 74.48ZM188.491 73.8C189.691 73.8 190.691 73.76 191.491 73.68V74.48C189.998 74.8267 188.944 75.9867 188.331 77.96L180.771 102.2H180.451H180.131L173.171 81.6L166.811 102.2H166.491H166.171L157.691 77.04C157.131 75.3867 156.211 74.5333 154.931 74.48V73.68C156.024 73.76 157.451 73.8 159.211 73.8C161.131 73.8 162.571 73.76 163.531 73.68V74.48C162.811 74.5333 162.304 74.6667 162.011 74.88C161.718 75.0933 161.571 75.4267 161.571 75.88C161.571 76.3067 161.718 76.96 162.011 77.84L167.851 95.68L172.731 80.2L171.651 77.04C171.118 75.3867 170.331 74.5333 169.291 74.48V73.68C170.251 73.76 171.544 73.8 173.171 73.8C175.464 73.8 177.171 73.76 178.291 73.68V74.48C177.278 74.5333 176.571 74.6533 176.171 74.84C175.771 75 175.571 75.36 175.571 75.92C175.571 76.4 175.704 77.04 175.971 77.84L181.731 95.64L186.651 80.16C187.078 78.8533 187.291 77.7733 187.291 76.92C187.291 76.04 187.024 75.4267 186.491 75.08C185.958 74.7067 185.091 74.5067 183.891 74.48V73.68C185.411 73.76 186.944 73.8 188.491 73.8ZM213.836 98.64C214.476 100.293 215.396 101.147 216.596 101.2V102C215.53 101.92 214.103 101.88 212.316 101.88C210.023 101.88 208.316 101.92 207.196 102V101.2C208.21 101.147 208.93 101.027 209.356 100.84C209.81 100.627 210.036 100.253 210.036 99.72C210.036 99.2667 209.876 98.64 209.556 97.84L207.116 91.28H197.436L195.796 95.52C195.263 96.96 194.996 98.0533 194.996 98.8C194.996 99.6267 195.276 100.227 195.836 100.6C196.423 100.973 197.303 101.173 198.476 101.2V102C196.956 101.92 195.423 101.88 193.876 101.88C192.676 101.88 191.676 101.92 190.876 102V101.2C192.21 100.88 193.263 99.72 194.036 97.72L203.436 73.48H204.076L213.836 98.64ZM206.796 90.48L202.316 78.52L197.756 90.48H206.796ZM229.45 74.48C228.49 74.5333 227.784 74.64 227.33 74.8C226.904 74.96 226.61 75.2667 226.45 75.72C226.29 76.1733 226.21 76.9067 226.21 77.92V97.76C226.21 98.7733 226.29 99.5067 226.45 99.96C226.61 100.413 226.904 100.72 227.33 100.88C227.784 101.013 228.49 101.08 229.45 101.08H232.37C234.024 101.08 235.277 100.853 236.13 100.4C237.01 99.92 237.65 99.16 238.05 98.12C238.45 97.08 238.744 95.5733 238.93 93.6H239.85C239.77 94.4267 239.73 95.52 239.73 96.88C239.73 98.4 239.824 100.107 240.01 102C238.197 101.92 235.144 101.88 230.85 101.88C225.73 101.88 221.864 101.92 219.25 102V101.2C220.21 101.147 220.904 101.04 221.33 100.88C221.784 100.72 222.09 100.413 222.25 99.96C222.41 99.5067 222.49 98.7733 222.49 97.76V77.92C222.49 76.9067 222.41 76.1733 222.25 75.72C222.09 75.2667 221.784 74.96 221.33 74.8C220.904 74.64 220.21 74.5333 219.25 74.48V73.68C220.37 73.76 222.077 73.8 224.37 73.8C226.504 73.8 228.197 73.76 229.45 73.68V74.48Z" fill="white"/>
</svg>
